<svg width="682" height="580" viewBox="0 0 682 580" fill="none" xmlns="http://www.w3.org/2000/svg">
<path d="M674.484 177.011L661.786 185.476V188.121L674.484 179.958V177.011Z" fill="#8F8F8F"/>
<path d="M674.484 181.999L661.786 190.464V193.109L674.484 184.946V181.999Z" fill="#8F8F8F"/>
<path d="M674.484 186.987L661.786 195.452V198.097L674.484 189.935V186.987Z" fill="#8F8F8F"/>
<path d="M674.484 191.975L661.786 200.44V203.086L674.484 194.923V191.975Z" fill="#8F8F8F"/>
<path d="M674.484 196.964L661.786 205.429V208.074L674.484 199.911V196.964Z" fill="#8F8F8F"/>
<path d="M674.484 201.952L661.786 210.417V213.062L674.484 204.9V201.952Z" fill="#8F8F8F"/>
<path d="M674.484 206.94L661.786 215.405V218.051L674.484 209.888V206.94Z" fill="#8F8F8F"/>
<path d="M555.4 23.1254L551.303 27.5023L645.355 36.6942L647.849 32.3915L555.4 23.1254Z" fill="#8F8F8F"/>
<path d="M649.708 25.6371L464.854 7.73694L426.09 84.7328H355.382C354.061 84.7328 352.99 85.8035 352.99 87.1243C352.99 88.4451 354.061 89.5158 355.382 89.5158H427.856L446.366 54.013L457.29 47.3372L470.945 17.9032L549.84 25.6371L554.392 20.9377L648.524 30.534L672.929 59.6155C674.1 61.0114 676.376 60.183 676.376 58.3607C676.376 57.9043 676.216 57.4622 675.924 57.1115L649.708 25.6371Z" stroke="#8F8F8F"/>
<path d="M473.619 20.5778L459.964 50.0117L449.041 56.6875L430.531 92.1904" stroke="#8F8F8F" stroke-width="2"/>
<path d="M676.572 211.265V73.4136L656.85 49.2901C656.07 48.3358 654.67 48.1781 653.697 48.9349C652.692 49.7167 652.526 51.1722 653.33 52.1602L673.22 76.6222V175.381L659.691 184.533V269.744C659.691 270.77 660.523 271.601 661.548 271.601C662.574 271.601 663.405 270.77 663.405 269.744V219.872L676.572 211.265Z" stroke="#8F8F8F"/>
<path d="M674.484 402.989L661.786 394.524V391.879L674.484 400.042V402.989Z" fill="#8F8F8F"/>
<path d="M674.484 398.001L661.786 389.536V386.891L674.484 395.053V398.001Z" fill="#8F8F8F"/>
<path d="M674.484 393.013L661.786 384.548V381.902L674.484 390.065V393.013Z" fill="#8F8F8F"/>
<path d="M674.484 388.024L661.786 379.56V376.914L674.484 385.077V388.024Z" fill="#8F8F8F"/>
<path d="M674.484 383.036L661.786 374.571V371.926L674.484 380.089V383.036Z" fill="#8F8F8F"/>
<path d="M674.484 378.048L661.786 369.583V366.938L674.484 375.1V378.048Z" fill="#8F8F8F"/>
<path d="M674.484 373.06L661.786 364.595V361.949L674.484 370.112V373.06Z" fill="#8F8F8F"/>
<path d="M555.4 556.875L551.303 552.498L645.355 543.306L647.849 547.608L555.4 556.875Z" fill="#8F8F8F"/>
<path d="M649.708 554.363L464.854 572.263L426.09 495.267H355.382C354.061 495.267 352.99 494.196 352.99 492.876C352.99 491.555 354.061 490.484 355.382 490.484H427.856L446.366 525.987L457.29 532.663L470.945 562.097L549.84 554.363L554.392 559.062L648.524 549.466L672.929 520.385C674.1 518.989 676.376 519.817 676.376 521.639C676.376 522.096 676.216 522.538 675.924 522.888L649.708 554.363Z" stroke="#8F8F8F"/>
<path d="M473.619 559.422L459.964 529.988L449.041 523.312L430.531 487.81" stroke="#8F8F8F" stroke-width="2"/>
<path d="M676.572 368.735V506.586L656.85 530.71C656.07 531.664 654.67 531.822 653.697 531.065C652.692 530.283 652.526 528.828 653.33 527.84L673.22 503.378V404.619L659.691 395.467V310.255C659.691 309.23 660.523 308.399 661.548 308.399C662.574 308.399 663.405 309.23 663.405 310.255V360.128L676.572 368.735Z" stroke="#8F8F8F"/>
<path d="M7.51777 177.011L20.2157 185.476V188.121L7.51777 179.958V177.011Z" fill="#8F8F8F"/>
<path d="M7.51777 181.999L20.2157 190.464V193.109L7.51777 184.946V181.999Z" fill="#8F8F8F"/>
<path d="M7.51777 186.987L20.2157 195.452V198.097L7.51777 189.935V186.987Z" fill="#8F8F8F"/>
<path d="M7.51777 191.975L20.2157 200.44V203.086L7.51777 194.923V191.975Z" fill="#8F8F8F"/>
<path d="M7.51777 196.964L20.2157 205.429V208.074L7.51777 199.911V196.964Z" fill="#8F8F8F"/>
<path d="M7.51777 201.952L20.2157 210.417V213.062L7.51777 204.9V201.952Z" fill="#8F8F8F"/>
<path d="M7.51777 206.94L20.2157 215.405V218.051L7.51777 209.888V206.94Z" fill="#8F8F8F"/>
<path d="M126.602 23.1254L130.698 27.5023L36.6464 36.6942L34.1527 32.3915L126.602 23.1254Z" fill="#8F8F8F"/>
<path d="M32.2941 25.6371L217.148 7.73694L255.912 84.7328H326.62C327.941 84.7328 329.011 85.8035 329.011 87.1243C329.011 88.4451 327.941 89.5158 326.62 89.5158H254.145L235.635 54.013L224.712 47.3372L211.057 17.9032L132.162 25.6371L127.61 20.9377L33.4779 30.534L9.07312 59.6155C7.9017 61.0114 5.62601 60.183 5.62601 58.3607C5.62601 57.9043 5.78598 57.4622 6.07812 57.1115L32.2941 25.6371Z" stroke="#8F8F8F"/>
<path d="M208.383 20.5776L222.038 50.0116L232.961 56.6874L251.471 92.1902" stroke="#8F8F8F" stroke-width="2"/>
<path d="M5.43001 211.265V73.4136L25.1519 49.2901C25.9321 48.3358 27.3312 48.1781 28.3042 48.9349C29.3095 49.7167 29.4754 51.1722 28.672 52.1602L8.78125 76.6222V175.381L22.3104 184.533V269.744C22.3104 270.77 21.4791 271.601 20.4535 271.601C19.428 271.601 18.5966 270.77 18.5966 269.744V219.872L5.43001 211.265Z" stroke="#8F8F8F"/>
<path d="M7.51777 402.989L20.2157 394.524V391.879L7.51777 400.042V402.989Z" fill="#8F8F8F"/>
<path d="M7.51777 398.001L20.2157 389.536V386.891L7.51777 395.053V398.001Z" fill="#8F8F8F"/>
<path d="M7.51777 393.013L20.2157 384.548V381.902L7.51777 390.065V393.013Z" fill="#8F8F8F"/>
<path d="M7.51777 388.024L20.2157 379.56V376.914L7.51777 385.077V388.024Z" fill="#8F8F8F"/>
<path d="M7.51777 383.036L20.2157 374.571V371.926L7.51777 380.089V383.036Z" fill="#8F8F8F"/>
<path d="M7.51777 378.048L20.2157 369.583V366.938L7.51777 375.1V378.048Z" fill="#8F8F8F"/>
<path d="M7.51777 373.06L20.2157 364.595V361.949L7.51777 370.112V373.06Z" fill="#8F8F8F"/>
<path d="M126.602 556.875L130.698 552.498L36.6464 543.306L34.1527 547.608L126.602 556.875Z" fill="#8F8F8F"/>
<path d="M32.2941 554.363L217.148 572.263L255.912 495.267H326.62C327.941 495.267 329.011 494.196 329.011 492.876C329.011 491.555 327.941 490.484 326.62 490.484H254.145L235.635 525.987L224.712 532.663L211.057 562.097L132.162 554.363L127.61 559.062L33.4779 549.466L9.07312 520.384C7.9017 518.988 5.62601 519.817 5.62601 521.639C5.62601 522.096 5.78598 522.538 6.07812 522.888L32.2941 554.363Z" stroke="#8F8F8F"/>
<path d="M208.383 559.422L222.038 529.988L232.961 523.313L251.471 487.81" stroke="#8F8F8F" stroke-width="2"/>
<path d="M5.43001 368.735V506.586L25.1519 530.71C25.9321 531.664 27.3312 531.822 28.3042 531.065C29.3095 530.283 29.4754 528.828 28.672 527.84L8.78125 503.378V404.619L22.3104 395.467V310.255C22.3104 309.23 21.4791 308.399 20.4535 308.399C19.428 308.399 18.5966 309.23 18.5966 310.255V360.128L5.43001 368.735Z" stroke="#8F8F8F"/>
<path d="M681 54.167L654.392 19.4971L462.09 0.95166L435.283 56.2864H246.717L219.91 0.95166L27.6077 19.4971L1 54.167V213.816L14.3326 222.063V357.937L1 366.184V525.832L27.6077 560.503L219.91 579.048H462.09L654.392 560.503L681 525.832V366.184L667.667 357.937V222.063L681 213.816V54.167Z" stroke="#8F8F8F"/>
</svg>
