<svg width="16" height="16" viewBox="0 0 16 16" fill="none" xmlns="http://www.w3.org/2000/svg">
<path d="M6.87532 8.00009H2.75032M2.68683 8.21871L0.935638 13.4497C0.798063 13.8607 0.729275 14.0662 0.77864 14.1927C0.82151 14.3026 0.913582 14.3859 1.02719 14.4176C1.15802 14.4541 1.35562 14.3652 1.75082 14.1874L14.2844 8.54724C14.6702 8.37366 14.863 8.28686 14.9227 8.16629C14.9744 8.06154 14.9744 7.93863 14.9227 7.83388C14.863 7.71331 14.6702 7.62652 14.2844 7.45294L1.74645 1.81088C1.35244 1.63358 1.15544 1.54493 1.02474 1.58129C0.911237 1.61287 0.819174 1.69596 0.776156 1.80565C0.726623 1.93194 0.794675 2.13697 0.930781 2.54704L2.68732 7.83923C2.71069 7.90966 2.72238 7.94488 2.72699 7.98089C2.73109 8.01285 2.73105 8.04521 2.72687 8.07715C2.72216 8.11316 2.71039 8.14834 2.68683 8.21871Z" stroke="#111921" stroke-width="1.5" stroke-linecap="round" stroke-linejoin="round"/>
</svg>
